<?xml version="1.0" encoding="UTF-8" standalone="no"?>
<!DOCTYPE svg PUBLIC "-//W3C//DTD SVG 1.1//EN" "http://www.w3.org/Graphics/SVG/1.1/DTD/svg11.dtd">
<svg version="1.1" xmlns="http://www.w3.org/2000/svg" xmlns:xlink="http://www.w3.org/1999/xlink" preserveAspectRatio="xMidYMid meet" viewBox="117.15238095238097 65.88095238095232 419.6000000000001 492" width="415.6" height="488"><defs><path d="M216.27 383.77C246.43 398.86 284.05 406.88 325.95 406.88C367.87 406.88 405.49 398.86 435.64 383.77C400.16 373.95 374 341.46 374 302.9C374 256.6 411.67 218.93 457.98 218.93C479.13 218.93 498.42 226.85 513.2 239.8C509.31 194.56 489.65 152.58 457.09 120.61C421.8 85.96 375.22 66.88 325.95 66.88C276.68 66.88 230.11 85.96 194.82 120.61C162.25 152.58 142.6 194.56 138.7 239.8C153.48 226.85 172.78 218.93 193.93 218.93C240.23 218.93 277.9 256.6 277.9 302.9C277.9 341.46 251.75 373.95 216.27 383.77Z" id="b3bYTM3dtn"></path><path d="M477.55 306.88C473.63 306.88 442.28 306.88 438.36 306.88C440.22 316 448.3 322.88 457.95 322.88C467.61 322.88 475.69 316 477.55 306.88Z" id="b17qNmGWYR"></path><path d="M382.2 298.88C397.36 298.88 518.59 298.88 533.75 298.88C531.64 258.86 498.51 226.93 457.98 226.93C417.44 226.93 384.32 258.86 382.2 298.88Z" id="ad1XBrZ63"></path><path d="M118.16 298.88C133.31 298.88 254.55 298.88 269.7 298.88C267.59 258.86 234.46 226.93 193.93 226.93C153.39 226.93 120.27 258.86 118.16 298.88Z" id="b1Nut51pVA"></path><path d="M213.55 306.88C209.63 306.88 178.28 306.88 174.36 306.88C176.22 316 184.3 322.88 193.95 322.88C203.61 322.88 211.69 316 213.55 306.88Z" id="gvcolBbg"></path><path d="M298.3 530.6C299.58 532.36 309.84 546.48 311.12 548.24C314.71 552.36 320.2 554.88 325.95 554.88C331.71 554.88 337.2 552.36 341.01 547.96C341.17 547.73 341.96 546.62 343.38 544.61C349.44 536.29 352.8 531.67 353.47 530.74C349.11 518.83 338.2 510.88 325.85 510.88C313.56 510.88 302.69 518.77 298.3 530.6Z" id="exAVpqh4V"></path><path d="M457.95 330.88C443.88 330.88 432.22 320.42 430.27 306.88C425.47 306.88 387.01 306.88 382.2 306.88C384.29 346.92 417.42 378.88 457.98 378.88C498.53 378.88 531.66 346.92 533.75 306.88C530.54 306.88 514.5 306.88 485.63 306.88C476.56 322.88 467.34 330.88 457.95 330.88Z" id="h1fhuGoWA"></path><path d="M221.63 306.88C219.68 320.42 208.03 330.88 193.95 330.88C179.88 330.88 168.22 320.42 166.27 306.88C161.46 306.88 122.96 306.88 118.15 306.88C120.24 346.92 153.38 378.88 193.93 378.88C234.48 378.88 267.62 346.92 269.7 306.88C260.09 306.88 226.44 306.88 221.63 306.88Z" id="a1PPytZaO"></path><path d="M402.24 463.69C435.76 417.6 454.38 392 458.1 386.88C458.06 386.88 458.02 386.88 457.98 386.88C454.66 386.88 451.4 386.64 448.18 386.26C448.15 386.28 447.94 386.39 447.91 386.41C415.41 405.02 373.2 414.88 325.95 414.88C278.7 414.88 236.5 405.02 203.9 386.35C203.88 386.34 203.75 386.27 203.73 386.26C200.51 386.64 197.25 386.88 193.93 386.88C193.88 386.88 193.84 386.87 193.8 386.87C197.52 391.99 216.14 417.6 249.64 463.68C209.61 453.67 187.37 448.11 182.92 447C180.78 446.45 178.61 447.76 178.07 449.91C177.53 452.05 178.84 454.22 180.98 454.76C186.05 456.03 211.38 462.36 256.97 473.76L267.28 487.94C227.69 494.54 205.7 498.2 201.3 498.94C199.12 499.3 197.64 501.36 198.01 503.54C198.33 505.49 200.03 506.88 201.95 506.88C202.17 506.88 202.38 506.86 202.61 506.82C207.27 506.05 230.58 502.16 272.54 495.17L282.66 509.09C235.88 524.69 209.89 533.35 204.69 535.08C202.6 535.78 201.46 538.04 202.16 540.14C202.72 541.82 204.28 542.88 205.95 542.88C206.37 542.88 206.8 542.81 207.22 542.67C212.58 540.89 239.37 531.96 287.6 515.88C290.74 520.21 292.49 522.62 292.84 523.1C299.34 510.78 311.88 502.88 325.85 502.88C339.86 502.88 352.45 510.84 358.93 523.22C359.29 522.73 361.07 520.28 364.28 515.87C412.52 531.95 439.32 540.88 444.68 542.67C445.11 542.81 445.53 542.88 445.95 542.88C447.63 542.88 449.19 541.82 449.74 540.14C450.44 538.05 449.31 535.78 447.22 535.08C442.02 533.35 416.02 524.68 369.22 509.08L379.34 495.16C421.31 502.16 444.63 506.05 449.29 506.82C449.52 506.86 449.73 506.88 449.95 506.88C451.87 506.88 453.57 505.49 453.89 503.54C454.26 501.36 452.78 499.3 450.6 498.94C446.2 498.2 424.2 494.54 384.6 487.94L394.91 473.76C440.52 462.36 465.85 456.03 470.92 454.76C473.06 454.22 474.37 452.05 473.83 449.91C473.3 447.77 471.12 446.46 468.98 447C460.08 449.23 437.84 454.79 402.24 463.69Z" id="b6qosQzSo"></path></defs><g><g><use xlink:href="#b3bYTM3dtn" opacity="1" fill="#000000" fill-opacity="1"></use><g><use xlink:href="#b3bYTM3dtn" opacity="1" fill-opacity="0" stroke="#000000" stroke-width="1" stroke-opacity="0"></use></g></g><g><use xlink:href="#b17qNmGWYR" opacity="1" fill="#000000" fill-opacity="1"></use><g><use xlink:href="#b17qNmGWYR" opacity="1" fill-opacity="0" stroke="#000000" stroke-width="1" stroke-opacity="0"></use></g></g><g><use xlink:href="#ad1XBrZ63" opacity="1" fill="#000000" fill-opacity="1"></use><g><use xlink:href="#ad1XBrZ63" opacity="1" fill-opacity="0" stroke="#000000" stroke-width="1" stroke-opacity="0"></use></g></g><g><use xlink:href="#b1Nut51pVA" opacity="1" fill="#000000" fill-opacity="1"></use><g><use xlink:href="#b1Nut51pVA" opacity="1" fill-opacity="0" stroke="#000000" stroke-width="1" stroke-opacity="0"></use></g></g><g><use xlink:href="#gvcolBbg" opacity="1" fill="#000000" fill-opacity="1"></use><g><use xlink:href="#gvcolBbg" opacity="1" fill-opacity="0" stroke="#000000" stroke-width="1" stroke-opacity="0"></use></g></g><g><use xlink:href="#exAVpqh4V" opacity="1" fill="#000000" fill-opacity="1"></use><g><use xlink:href="#exAVpqh4V" opacity="1" fill-opacity="0" stroke="#000000" stroke-width="1" stroke-opacity="0"></use></g></g><g><use xlink:href="#h1fhuGoWA" opacity="1" fill="#000000" fill-opacity="1"></use><g><use xlink:href="#h1fhuGoWA" opacity="1" fill-opacity="0" stroke="#000000" stroke-width="1" stroke-opacity="0"></use></g></g><g><use xlink:href="#a1PPytZaO" opacity="1" fill="#000000" fill-opacity="1"></use><g><use xlink:href="#a1PPytZaO" opacity="1" fill-opacity="0" stroke="#000000" stroke-width="1" stroke-opacity="0"></use></g></g><g><use xlink:href="#b6qosQzSo" opacity="1" fill="#000000" fill-opacity="1"></use><g><use xlink:href="#b6qosQzSo" opacity="1" fill-opacity="0" stroke="#000000" stroke-width="1" stroke-opacity="0"></use></g></g></g></svg>